<svg xmlns="http://www.w3.org/2000/svg" width="101" height="91.41" viewBox="0 0 101 91.41">
  <g id="Group_100689" data-name="Group 100689" transform="translate(-303.76 -482.61)">
    <path id="Path_267355" data-name="Path 267355" d="M320.383,493.018a13.144,13.144,0,0,0,5.1,10.448,4.2,4.2,0,1,1,5.946-5.947l14.032,14.031,14.031-14.031a25.9,25.9,0,0,1,17.606-7.681h0l-1.99-1.99a17.88,17.88,0,0,0-25.287,0l-4.361,4.361-4.36-4.361a17.769,17.769,0,0,0-12.644-5.238,17.95,17.95,0,0,0-3.266.3A13.135,13.135,0,0,0,320.383,493.018Z" transform="translate(8.797 0)" fill="#03877a"/>
    <path id="Path_267356" data-name="Path 267356" d="M388.3,507.956a13.3,13.3,0,0,0-6.3-9.8,17.815,17.815,0,0,0-13.167,5.2l-19.978,19.976-19.976-19.976a13.139,13.139,0,0,1-.294-20.554A17.88,17.88,0,0,0,319.2,513.03l29.65,29.648L378.5,513.032a4.2,4.2,0,1,1,5.947,5.946A13.3,13.3,0,0,0,388.3,507.956Z" transform="translate(5.406 0.104)" fill="#06c6b3"/>
    <path id="Path_267357" data-name="Path 267357" d="M399.524,498.049a17.8,17.8,0,0,0-12.122-5.2,13.3,13.3,0,0,1,2.451,20.82l-35.6,35.6-35.591-35.6a25.5,25.5,0,0,1-7.7-17.588l-1.976,1.974a17.885,17.885,0,0,0,0,25.286l45.26,45.269,0,0h0l45.265-45.266a17.882,17.882,0,0,0,0-25.286Z" transform="translate(0 5.416)" fill="#03877a"/>
  </g>
</svg>
